<svg aria-hidden="true" style="position: absolute; width: 0; height: 0; overflow: hidden;" version="1.1" xmlns="http://www.w3.org/2000/svg" xmlns:xlink="http://www.w3.org/1999/xlink">
<defs>
<symbol id="icon-home" viewBox="0 0 16 16">
<title>home</title>
<path d="M15.709 6.203l-5.91-5.909c-0.226-0.227-0.528-0.314-0.824-0.289h-1.951c-0.296-0.024-0.598 0.063-0.824 0.289l-1.2 1.2v-1.489h-2.999v4.489l-1.711 1.71c-0.227 0.226-0.313 0.529-0.289 0.824v1.975c0 0.552 0.447 1 1 1h1v4.999c0 0.552 0.447 1 1 1h9.998c0.553 0 1-0.448 1-1v-4.999h1c0.553 0 1-0.448 1-1v-1.975c0.024-0.295-0.062-0.598-0.289-0.824zM13.998 8.002h-1.999v5.998h-1.999v-3.999h-3.999v3.999h-2v-5.998h-2v-0.555l5.444-5.444h1.109l5.444 5.444v0.555z"></path>
</symbol>

<symbol id="icon-facebook-with-circle" viewBox="0 0 20 20">
<title>facebook-with-circle</title>
<path d="M10 0.4c-5.302 0-9.6 4.298-9.6 9.6s4.298 9.6 9.6 9.6 9.6-4.298 9.6-9.6-4.298-9.6-9.6-9.6zM12.274 7.034h-1.443c-0.171 0-0.361 0.225-0.361 0.524v1.042h1.805l-0.273 1.486h-1.532v4.461h-1.703v-4.461h-1.545v-1.486h1.545v-0.874c0-1.254 0.87-2.273 2.064-2.273h1.443v1.581z"></path>
</symbol>

<symbol id="icon-codepen" viewBox="0 0 16 16">
<title>codepen</title>
<path d="M14.777 5.751l-7-4.667c-0.168-0.112-0.387-0.112-0.555 0l-7 4.667c-0.139 0.093-0.223 0.249-0.223 0.416v4.667c0 0.167 0.084 0.323 0.223 0.416l7 4.667c0.084 0.056 0.181 0.084 0.277 0.084s0.193-0.028 0.277-0.084l7-4.667c0.139-0.093 0.223-0.249 0.223-0.416v-4.667c0-0.167-0.084-0.323-0.223-0.416zM7.5 10.232l-2.599-1.732 2.599-1.732 2.599 1.732-2.599 1.732zM8 5.899v-3.465l5.599 3.732-2.599 1.732-3-2zM7 5.899l-3 2-2.599-1.732 5.599-3.732v3.465zM3.099 8.5l-2.099 1.399v-2.798l2.099 1.399zM4 9.101l3 2v3.465l-5.599-3.732 2.599-1.732zM8 11.101l3-2 2.599 1.732-5.599 3.732v-3.465zM11.901 8.5l2.099-1.399v2.798l-2.099-1.399z"></path>
</symbol>

<symbol id="icon-instagram" viewBox="0 0 20 20">
<title>instagram</title>
<path d="M17 1h-14c-1.1 0-2 0.9-2 2v14c0 1.101 0.9 2 2 2h14c1.1 0 2-0.899 2-2v-14c0-1.1-0.9-2-2-2zM9.984 15.523c3.059 0 5.538-2.481 5.538-5.539 0-0.338-0.043-0.664-0.103-0.984h1.581v7.216c0 0.382-0.31 0.69-0.693 0.69h-12.614c-0.383 0-0.693-0.308-0.693-0.69v-7.216h1.549c-0.061 0.32-0.104 0.646-0.104 0.984 0 3.059 2.481 5.539 5.539 5.539zM6.523 9.984c0-1.912 1.55-3.461 3.462-3.461s3.462 1.549 3.462 3.461-1.551 3.462-3.462 3.462c-1.913 0-3.462-1.55-3.462-3.462zM16.307 6h-1.615c-0.382 0-0.692-0.312-0.692-0.692v-1.617c0-0.382 0.31-0.691 0.691-0.691h1.615c0.384 0 0.694 0.309 0.694 0.691v1.616c0 0.381-0.31 0.693-0.693 0.693z"></path>
</symbol>

<symbol id="icon-linkedin" viewBox="0 0 20 20">
<title>linkedin</title>
<path d="M5 3c0 1.062-0.71 1.976-2.001 1.976-1.215 0-1.999-0.862-1.999-1.924 0-1.090 0.76-2.052 2-2.052s1.976 0.91 2 2zM1 19v-13h4v13h-4z"></path>
<path d="M7 10.444c0-1.545-0.051-2.836-0.102-3.951h3.594l0.178 1.723h0.076c0.506-0.811 1.746-2 3.822-2 2.532 0 4.432 1.695 4.432 5.342v7.442h-4v-6.861c0-1.594-0.607-2.81-2-2.81-1.062 0-1.594 0.86-1.873 1.569-0.102 0.254-0.127 0.608-0.127 0.963v7.139h-4v-8.556z"></path>
</symbol>

<symbol id="icon-github" viewBox="0 0 16 16">
<title>github</title>
<path d="M8 0.198c-4.418 0-8 3.582-8 8 0 3.535 2.292 6.533 5.471 7.591 0.4 0.074 0.547-0.174 0.547-0.385 0-0.191-0.008-0.821-0.011-1.489-2.226 0.484-2.695-0.944-2.695-0.944-0.364-0.925-0.888-1.171-0.888-1.171-0.726-0.497 0.055-0.486 0.055-0.486 0.803 0.056 1.226 0.824 1.226 0.824 0.714 1.223 1.872 0.869 2.328 0.665 0.072-0.517 0.279-0.87 0.508-1.070-1.777-0.202-3.645-0.888-3.645-3.954 0-0.873 0.313-1.587 0.824-2.147-0.083-0.202-0.357-1.015 0.077-2.117 0 0 0.672-0.215 2.201 0.82 0.638-0.177 1.322-0.266 2.002-0.269 0.68 0.003 1.365 0.092 2.004 0.269 1.527-1.035 2.198-0.82 2.198-0.82 0.435 1.102 0.162 1.916 0.079 2.117 0.513 0.56 0.823 1.274 0.823 2.147 0 3.073-1.872 3.749-3.653 3.947 0.287 0.248 0.543 0.735 0.543 1.481 0 1.070-0.009 1.932-0.009 2.195 0 0.213 0.144 0.462 0.55 0.384 3.177-1.059 5.466-4.057 5.466-7.59 0-4.418-3.582-8-8-8z"></path>
</symbol>


</defs>
</svg>
